<?xml version="1.0" encoding="UTF-8" standalone="no"?>
<!-- Created with Inkscape (http://www.inkscape.org/) -->

<svg
   xmlns:dc="http://purl.org/dc/elements/1.1/"
   xmlns:cc="http://creativecommons.org/ns#"
   xmlns:rdf="http://www.w3.org/1999/02/22-rdf-syntax-ns#"
   xmlns:svg="http://www.w3.org/2000/svg"
   xmlns="http://www.w3.org/2000/svg"
   xmlns:xlink="http://www.w3.org/1999/xlink"
   xmlns:sodipodi="http://sodipodi.sourceforge.net/DTD/sodipodi-0.dtd"
   xmlns:inkscape="http://www.inkscape.org/namespaces/inkscape"
   width="5.1053438mm"
   height="11.602411mm"
   viewBox="0 0 5.1053438 11.602411"
   version="1.1"
   id="svg3877"
   inkscape:version="0.92.4 (5da689c313, 2019-01-14)"
   sodipodi:docname="dibujo.svg">
  <defs
     id="defs3871">
    <linearGradient
       id="b"
       x1="140.41"
       x2="151.98"
       y1="489.06"
       y2="588.28003"
       gradientUnits="userSpaceOnUse"
       xlink:href="#c" />
    <linearGradient
       id="c">
      <stop
         stop-color="#fff"
         offset="0"
         id="stop2" />
      <stop
         stop-color="#fff"
         stop-opacity="0"
         offset="1"
         id="stop4" />
    </linearGradient>
    <linearGradient
       id="a"
       x1="161.23"
       x2="218.19"
       y1="558.60999"
       y2="625.07001"
       gradientUnits="userSpaceOnUse">
      <stop
         stop-color="#008080"
         stop-opacity=".65441"
         offset="0"
         id="stop12" />
      <stop
         stop-color="#003434"
         stop-opacity=".71323"
         offset="1"
         id="stop14" />
    </linearGradient>
  </defs>
  <sodipodi:namedview
     id="base"
     pagecolor="#ffffff"
     bordercolor="#666666"
     borderopacity="1.0"
     inkscape:pageopacity="0.0"
     inkscape:pageshadow="2"
     inkscape:zoom="11.2"
     inkscape:cx="15.098101"
     inkscape:cy="22.206531"
     inkscape:document-units="mm"
     inkscape:current-layer="layer1"
     showgrid="false"
     inkscape:window-width="1300"
     inkscape:window-height="745"
     inkscape:window-x="58"
     inkscape:window-y="-8"
     inkscape:window-maximized="1"
     fit-margin-top="0"
     fit-margin-left="0"
     fit-margin-right="0"
     fit-margin-bottom="0" />
  <metadata
     id="metadata3874">
    <rdf:RDF>
      <cc:Work
         rdf:about="">
        <dc:format>image/svg+xml</dc:format>
        <dc:type
           rdf:resource="http://purl.org/dc/dcmitype/StillImage" />
        <dc:title></dc:title>
      </cc:Work>
    </rdf:RDF>
  </metadata>
  <g
     inkscape:label="Capa 1"
     inkscape:groupmode="layer"
     id="layer1"
     transform="translate(-78.044863,-83.65435)">
    <g
       style="fill-rule:evenodd"
       transform="matrix(0.04860846,-0.02562936,0.02562936,0.04860846,57.916282,68.897757)"
       id="g33">
      <path
         style="fill:#008080"
         inkscape:connector-curvature="0"
         d="M 241.89,431.12 C 188.295,508.656 134,533.13 122.82,552.49 c -11.193,19.386 -5.2046,50.653 17.009,63.478 22.2136,12.825 53.781,-0.21451 63.477,-17.009 9.6223,-16.666 1.4932,-80.776 38.581,-167.84 z"
         id="path27" />
      <path
         style="fill:url(#b)"
         inkscape:connector-curvature="0"
         d="m 201.47,489.06 c -1.1986,0.0366 -2.3383,0.52825 -3.1875,1.375 -13.665,13.705 -28.179,26.544 -43.375,38.438 l -0.15625,0.125 c -10.413,8.8512 -20.995,15.626 -27.906,25.656 -0.10172,0.14055 -0.19562,0.28661 -0.28125,0.4375 -4.374,8.0981 -5.8345,17.919 -3.8438,26.75 0.0767,0.34516 0.19206,0.6806 0.34375,1 0.85637,1.7986 2.0955,3.1017 3.5938,4.0625 1.4983,0.9608 3.4547,1.9666 6.25,0.9375 0.18136,-0.0621 0.35877,-0.13511 0.53125,-0.21875 l 0.0625,-0.0312 v -0.0312 c 11.213,-4.1455 19.516,-14.011 28.219,-24 l 0.0937,-0.125 c 16.907,-20.913 31.143,-43.707 43.969,-67.406 0.80904,-1.4882 0.75822,-3.2959 -0.13316,-4.7363 -0.89138,-1.4404 -2.4865,-2.2925 -4.1793,-2.2324 z"
         id="path29" />
      <path
         style="fill:url(#a)"
         inkscape:connector-curvature="0"
         d="m 196.27,558.65 c -5.7557,1.4292 -6.4936,9.1221 -10.258,12.967 -6.4681,10.582 -15.088,19.69 -24.055,27.876 -2.8612,4.7136 3.3489,9.6549 7.75,6.8438 13.615,-3.9368 28.766,-13.223 30.229,-28.705 0.11687,-5.5512 3.5348,-11.709 0.95814,-16.952 -1.0057,-1.4577 -2.8625,-2.2462 -4.625,-2.0312 z"
         id="path31" />
    </g>
  </g>
</svg>
