<?xml version="1.0" encoding="UTF-8" standalone="no"?>
<svg
   xmlns:dc="http://purl.org/dc/elements/1.1/"
   xmlns:cc="http://creativecommons.org/ns#"
   xmlns:rdf="http://www.w3.org/1999/02/22-rdf-syntax-ns#"
   xmlns:svg="http://www.w3.org/2000/svg"
   xmlns="http://www.w3.org/2000/svg"
   xmlns:sodipodi="http://sodipodi.sourceforge.net/DTD/sodipodi-0.dtd"
   xmlns:inkscape="http://www.inkscape.org/namespaces/inkscape"
   viewBox="0 0 309.15323 330.41989"
   version="1.1"
   id="svg68"
   sodipodi:docname="sol.svg"
   width="309.15323"
   height="330.41989"
   inkscape:version="0.92.4 (5da689c313, 2019-01-14)">
  <metadata
     id="metadata74">
    <rdf:RDF>
      <cc:Work
         rdf:about="">
        <dc:format>image/svg+xml</dc:format>
        <dc:type
           rdf:resource="http://purl.org/dc/dcmitype/StillImage" />
        <dc:title></dc:title>
      </cc:Work>
    </rdf:RDF>
  </metadata>
  <defs
     id="defs72" />
  <sodipodi:namedview
     pagecolor="#ffffff"
     bordercolor="#666666"
     borderopacity="1"
     objecttolerance="10"
     gridtolerance="10"
     guidetolerance="10"
     inkscape:pageopacity="0"
     inkscape:pageshadow="2"
     inkscape:window-width="640"
     inkscape:window-height="439"
     id="namedview70"
     showgrid="false"
     fit-margin-top="0"
     fit-margin-left="0"
     fit-margin-right="0"
     fit-margin-bottom="0"
     inkscape:zoom="0.29135802"
     inkscape:cx="251.05825"
     inkscape:cy="-18.6215"
     inkscape:window-x="411"
     inkscape:window-y="78"
     inkscape:window-maximized="0"
     inkscape:current-layer="svg68" />
  <g
     transform="matrix(1.25,0,0,-1.25,-93.878192,754.04138)"
     id="g66"
     style="fill:#ff6100">
    <path
       d="m 232.93,568.46 h 0.087 -0.087"
       id="path2"
       inkscape:connector-curvature="0" />
    <g
       transform="matrix(2.3072,0,0,2.3072,-136.44,314.96)"
       id="g64">
      <path
         d="m 149.57,107.81 c 0.157,0 0.313,-0.053 0.418,0.104 0.104,-0.575 0.209,-1.149 0.36601,-1.776 l -0.157,-0.104 -0.209,0.522 c -0.575,-1.567 0.36601,-3.135 0.627,-4.65 0.522,-0.67899 0.522,-1.619 0.47,-2.507 -0.627,0.104 -0.314,-0.679 -0.73099,-0.784 0.10399,-0.26099 0.31299,-0.46999 0.26099,-0.836 -0.94099,-0.418 -1.62,0.627 -1.777,1.254 -0.15601,0.314 -0.15601,0.732 -0.522,0.993 -0.157,-0.836 -0.784,-0.053 -1.254,-0.157 -1.149,5.694 -0.83601,11.65 -0.731,17.71 0.418,1.202 0,2.299 0.104,3.605 0.314,-0.784 0,-1.776 0.261,-2.612 0.105,0.679 0.366,1.253 0.26199,1.985 l 0.261,-2.351 h 0.10399 v 6.739 c -0.10399,-6.06 2.142,-11.336 2.247,-17.135"
         id="path4"
         inkscape:connector-curvature="0" />
      <path
         d="m 147.48,115.8 -0.157,2.142 0.157,-1.776 V 115.8"
         id="path6"
         inkscape:connector-curvature="0" />
      <path
         d="m 162.63,98.873 c -0.888,-0.888 -1.828,-1.828 -2.769,-2.246 -0.104,3.187 1.62,6.217 2.665,9.299 1.881,3.5 3.03,7.418 5.747,10.658 l 0.365,0.992 c -2.142,-6.164 -3.605,-12.642 -6.008,-18.703"
         id="path8"
         inkscape:connector-curvature="0" />
      <path
         d="m 134.05,99.5 c 0.20898,-0.104 0.313,0.157 0.47,0.262 -0.052,-1.359 0.73099,-1.307 -0.10402,-2.508 -0.36598,-0.261 -0.73198,-0.418 -1.254,-0.366 -3.866,3.553 -5.224,8.725 -6.635,13.009 l 1.097,-2.613 c -0.627,2.874 -1.619,5.904 -2.508,8.882 2.195,-5.852 5.486,-11.389 8.934,-16.666"
         id="path10"
         inkscape:connector-curvature="0" />
      <path
         d="m 147.06,110.94 0.157,-2.664 -0.157,2.664"
         id="path12"
         inkscape:connector-curvature="0" />
      <path
         d="m 189.06,103.26 c -5.59,-4.18 -12.068,-8.829 -15.777,-15.412 -2.09,-0.574 -3.866,-1.933 -6.269,-1.776 0.574,0.261 -0.26199,0.836 0,1.254 h -0.523 c 0.41798,0.47 1.202,0.575 1.254,1.254 -0.47,0.15601 -0.20898,1.515 -1.358,1.044 0.261,0.627 0.88798,0.784 1.515,0.836 0.575,1.359 2.142,0.889 3.134,1.515 5.538,3.814 10.292,9.561 16.561,11.807 0.523,-0.104 1.358,0.261 1.463,-0.522"
         id="path14"
         inkscape:connector-curvature="0" />
      <path
         d="m 110.7,95.007 0.261,0.262 c 3.03,-1.985 5.694,-5.016 9.142,-5.904 0.732,0.157 1.045,0.105 1.776,0.105 0.105,-0.262 0,-0.679 0.366,-0.888 0.627,0.365 0.731,-0.366 0.993,-0.732 -0.209,-0.313 -0.67899,0.105 -0.836,-0.365 0.313,-0.627 1.567,-0.314 1.462,-1.254 -0.574,-0.941 -2.507,-0.052 -1.723,-1.881 l -0.366,-1.515 c -5.329,1.358 -8.254,6.739 -12.068,10.396 l 1.619,-1.097 c -0.104,-0.052 -0.15601,0.052 -0.209,0.105 l -0.261,-0.262 c 0.888,-0.261 1.097,-1.358 2.142,-1.358 -0.209,1.045 -1.724,1.567 -2.298,2.612 0.783,-0.156 1.514,-1.097 2.298,-1.619 -0.47,1.045 -1.515,1.933 -2.664,2.769 l -2.612,3.134 c 1.045,-1.045 1.828,-1.881 2.978,-2.508"
         id="path16"
         inkscape:connector-curvature="0" />
      <path
         d="m 148.11,96.627 c 5.381,0.575 10.03,-1.62 14.158,-4.284 -6.113,1.567 -12.695,4.075 -18.964,0.784 -0.993,-0.157 -2.09,-0.62701 -2.508,-1.62 l 0.157,-0.418 -0.888,-0.365 c 0,0.156 0.052,0.313 -0.105,0.365 -0.418,-0.418 -1.358,-0.104 -1.776,-0.731 l 0.105,-0.105 c -0.52301,-0.313 -1.777,-1.045 -2.717,-0.783 -4.179,-3.291 -7.471,-7.001 -9.404,-11.755 0.471,0 1.097,0.888 1.097,1.359 0.157,0.104 0.209,0.313 0.366,0.261 l 0.157,-0.157 c -0.314,0.731 0.731,0.94 0.88801,1.515 -0.15701,-0.575 -1.202,-1.672 -0.62701,-2.508 l -2.142,-3.395 c -0.679,0.261 -0.522,-0.575 -0.784,-0.836 0.418,-1.829 -1.097,-4.232 -1.097,-6.53 0.052,-1.672 -0.992,-2.56 -0.261,-4.023 l 0.104,0.104 c 0.105,-0.156 0.41801,-1.358 -0.208,-0.992 -0.157,-0.314 0.261,-0.314 0.208,-0.366 -0.208,-0.418 -0.104,-1.045 0.262,-1.358 l 0.156,0.104 c 0.314,-0.679 0.889,-1.828 0.47099,-2.612 0.731,0 0.679,-1.097 0.992,-1.672 0.418,-2.298 1.568,-4.597 3.292,-6.478 0.26102,-0.783 1.201,-1.306 1.619,-2.037 0.83601,0.261 1.672,-1.306 2.403,-0.732 l -0.156,0.105 c 1.462,-0.418 1.097,-2.09 2.873,-1.985 1.933,-1.15 4.284,-0.418 6.426,-0.627 2.769,-0.679 5.119,1.253 7.627,0.731 1.672,0.522 3.291,1.568 5.015,1.515 2.978,1.463 6.322,2.926 8.411,6.165 4.232,5.538 6.217,12.381 5.277,19.8 -1.463,6.164 -7.262,12.538 -13.792,13.269 -7.419,1.62 -13.427,-2.403 -17.292,-8.411 -2.613,-4.336 -3.292,-11.18 -0.418,-15.672 2.351,-4.545 7.627,-5.747 12.538,-5.225 2.716,0.418 5.59,1.463 6.896,4.127 2.455,3.762 0.78299,8.934 0,12.904 -0.627,1.359 -2.038,1.933 -3.239,2.508 -2.769,-0.052 -5.434,-0.157 -7.419,-2.142 0.41798,-2.926 -0.15601,-6.374 2.926,-8.15 1.097,-0.261 1.933,-1.045 3.239,-0.731 0.36601,-1.045 -1.149,-0.575 -1.619,-0.993 -2.038,0.784 -4.023,1.933 -4.546,4.232 l -0.627,6.53 c 0.78401,3.448 4.755,3.291 7.523,3.866 3.187,-0.47 5.851,-2.09 7.784,-4.754 0.57498,-1.881 1.516,-3.761 1.15,-5.903 0.83598,-2.09 0,-4.336 -0.261,-6.635 -1.15,-2.978 -2.926,-6.008 -5.904,-7.889 -4.022,-0.783 -8.202,-1.567 -12.172,0 -5.12,1.358 -9.352,6.478 -10.031,11.65 -1.41,8.464 3.135,15.986 9.926,20.427 6.201,3.956 14.755,3.115 20.688,-1.463 6.635,-5.224 10.553,-12.747 9.665,-21.471 -0.313,-7.732 -5.224,-14.576 -12.068,-18.285 -3.187,-0.888 -6.53,-2.873 -9.613,-2.665 -2.664,-0.157 -5.015,-0.783 -7.94,-0.365 l -1.098,-0.366 0.105,-0.522 c 0.46999,0.104 0.88798,0.156 1.411,0.156 -4.493,-0.365 -9.509,0.523 -13.061,2.978 -0.679,0.94 -1.829,0.94 -2.508,1.515 -4.545,2.09 -5.694,7.157 -7.522,11.18 l -0.105,1.254 c 0.209,-0.627 0.47,-1.254 0.731,-1.881 0.575,1.359 -0.522,2.299 -0.522,3.762 -1.724,4.231 -0.418,9.874 0,13.792 0.105,0.94 0.94,2.194 0.522,2.612 0.26199,1.253 0.68,2.351 1.254,3.5 1.149,-0.209 0.731,1.097 1.149,1.672 1.359,1.515 1.725,3.448 3.501,5.015 0.94,0.209 0.992,-0.575 1.724,0 -0.52301,-0.679 -0.78401,-0.209 -1.463,-0.522 0.313,0.104 0.47,-0.68 0.83601,-0.523 -0.10501,-0.157 -0.52301,-0.157 -0.36601,-0.47 0.31401,-0.157 0.627,0.261 0.888,0.47 -0.052,0.314 0.261,0.627 0.523,1.045 0.731,-0.052 1.515,0.94 1.619,1.358 -0.313,0.418 -0.46999,-0.313 -0.783,-0.261 l 0.417,0.366 -0.522,0.156 0.732,0.732 v -0.105 c 0.41699,-0.261 0.888,0 1.149,0.366 l -0.523,0.366 c 2.978,1.097 4.807,4.858 8.15,5.276 2.247,1.411 5.068,1.933 7.941,1.985 v -0.104"
         id="path18"
         inkscape:connector-curvature="0" />
      <path
         d="m 146.33,95.112 c -0.523,-0.157 -0.94099,-0.67899 -1.62,-0.46999 0.46999,0.313 1.097,0.313 1.62,0.46999"
         id="path20"
         inkscape:connector-curvature="0" />
      <path
         d="m 143.56,95.007 h 0.522 -0.522"
         id="path22"
         inkscape:connector-curvature="0" />
      <path
         d="m 132.8,88.477 -0.627,-0.627 0.627,0.627"
         id="path24"
         inkscape:connector-curvature="0" />
      <path
         d="m 130.13,87.485 -0.105,0.261 h 0.36601 l -0.261,-0.261"
         id="path26"
         inkscape:connector-curvature="0" />
      <path
         d="m 130.4,87.328 -0.627,-0.47 0.627,0.47"
         id="path28"
         inkscape:connector-curvature="0" />
      <path
         d="m 127.78,85.708 -0.366,-0.365 0.366,0.365"
         id="path30"
         inkscape:connector-curvature="0" />
      <path
         d="m 123.39,83.462 -0.156,-0.627 0.156,0.627"
         id="path32"
         inkscape:connector-curvature="0" />
      <path
         d="m 194.97,82.469 c 0,-0.156 0.052,-0.209 0.157,-0.261 -6.426,-2.09 -12.329,-5.485 -19.33,-6.269 -0.36499,0.261 -0.94,0.105 -1.253,0.522 0.209,0.575 0.418,1.15 0.99197,1.62 -0.36499,0.784 -2.142,-0.05199 -1.515,1.097 1.672,0.261 3.135,0.94 4.545,1.672 5.015,0.522 10.187,0.313 15.046,1.619 h 1.358"
         id="path34"
         inkscape:connector-curvature="0" />
      <path
         d="m 102.45,76.2 c 4.441,0.105 8.202,-0.731 12.643,-0.261 0.313,1.097 1.828,-0.104 1.776,0.993 1.202,-0.41801 -0.26099,-0.941 0.366,-1.724 0.731,-0.46999 1.724,-0.67899 2.037,-1.411 -0.104,-0.575 -1.358,-0.731 -0.522,-1.358 -2.873,-0.209 -6.74,-0.105 -9.665,-0.157 -3.552,0.418 -7,1.045 -10.135,2.403 1.097,0.157 2.403,-0.261 3.5,-0.104 -3.813,0.679 -7.261,2.403 -10.762,3.866 L 102.45,76.2"
         id="path36"
         inkscape:connector-curvature="0" />
      <path
         d="m 125.9,78.447 -0.157,-0.366 0.157,0.366"
         id="path38"
         inkscape:connector-curvature="0" />
      <path
         d="m 183.42,64.55 c 5.119,-0.679 10.918,0.157 14.836,-3.134 -0.20801,-0.627 0.26199,-0.889 0.62799,-1.254 l -1.672,0.627 c -7.366,0.836 -16.457,-1.881 -21.42,4.231 0.52301,0.47 0.94101,0.627 1.62,0.888 2.246,0.105 3.97,-1.097 6.008,-1.358"
         id="path40"
         inkscape:connector-curvature="0" />
      <path
         d="m 120,64.393 h 0.105 v -0.47 H 120 Z"
         id="path42"
         inkscape:connector-curvature="0" />
      <path
         d="m 117.39,61.416 c 0.47,0 0.835,-0.575 1.097,-0.784 l 0.156,-0.627 c -0.313,0.157 -0.418,-0.261 -0.627,-0.366 -0.104,-0.209 0.157,-0.26099 0.209,-0.365 0.262,0.104 0.366,0.313 0.627,0.261 0.366,-0.575 0.366,-0.888 0.523,-1.515 -0.209,0 -0.366,-0.261 -0.523,-0.366 0.62701,-0.47 -0.052,-1.097 0.157,-1.515 -1.881,-1.881 -4.702,-1.463 -6.792,-2.769 -3.552,-1.41 -7.261,-2.873 -11.127,-3.134 l -3.761,-0.732 c 1.149,0.471 2.507,0.784 3.5,1.359 -2.038,0.157 -4.127,-0.888 -6.008,-0.62701 1.776,0.784 3.03,1.933 4.754,2.873 -0.105,0.209 -0.366,0.105 -0.523,0.157 l 0.157,0.104 h -0.888 l 1.358,0.262 -0.104,0.104 c -0.05199,0 0.679,-0.05199 0.888,0.261 -0.105,0.888 2.403,0.314 1.097,0.993 0.314,0.313 0.732,0.261 1.15,0.261 l -0.366,-0.261 c 1.41,0 2.351,1.149 3.761,1.619 0.94,0.471 1.985,0.575 2.717,1.515 l -0.105,0.157 c 1.568,0.366 3.03,2.351 4.911,2.508 0.627,1.045 2.194,0.052 3.344,0.365 l 0.418,0.262"
         id="path44"
         inkscape:connector-curvature="0" />
      <path
         d="m 122.77,59.378 0.105,0.157 0.261,-0.418 c -0.783,-0.313 -0.104,-1.41 -0.104,-1.724 -0.46999,1.202 -0.732,2.351 -0.784,3.605 0.366,-0.157 -0.209,-1.306 0.522,-1.62"
         id="path46"
         inkscape:connector-curvature="0" />
      <path
         d="m 122.4,55.773 c -0.157,-0.104 -0.157,-0.261 -0.157,-0.418 l -0.261,0.784 0.418,-0.366"
         id="path48"
         inkscape:connector-curvature="0" />
      <path
         d="m 122.51,55.251 0.105,-0.522 -0.105,0.522"
         id="path50"
         inkscape:connector-curvature="0" />
      <path
         d="m 180.7,47.624 c 2.194,-1.62 3.971,-3.866 4.754,-6.27 -4.754,2.561 -10.344,4.128 -14.314,8.621 0.15701,0.731 0.99202,0.156 1.41,0.522 l -0.261,0.261 c 3.396,1.15 5.59,-2.142 8.411,-3.134"
         id="path52"
         inkscape:connector-curvature="0" />
      <path
         d="m 125.9,45.482 c -1.149,-1.254 1.776,-2.299 -0.157,-3.292 -4.858,-4.701 -10.291,-10.239 -15.672,-14.889 l 2.298,2.508 c -0.783,0.209 -1.41,-0.836 -2.037,-1.149 l -2.247,-2.142 c 0.836,0.836 1.829,1.724 1.986,2.664 -1.463,-0.992 -2.978,-2.037 -4.493,-3.03 0.836,1.202 1.881,1.515 2.612,2.508 -0.052,0.156 -0.209,0.156 -0.366,0.156 4.545,6.113 9.769,12.538 16.038,17.397 -0.156,0.366 0.262,0.68 0.523,0.784 0.731,0 1.149,-0.94 1.515,-1.515"
         id="path54"
         inkscape:connector-curvature="0" />
      <path
         d="m 128.78,45.221 1.515,-1.15 c -1.149,0.261 -2.142,0.784 -3.03,1.672 0.627,0.052 0.732,-0.888 1.515,-0.522"
         id="path56"
         inkscape:connector-curvature="0" />
      <path
         d="m 157.09,42.608 c -0.157,-0.104 -0.36601,-0.156 -0.627,-0.156 0.209,0.052 0.41798,0.156 0.627,0.156"
         id="path58"
         inkscape:connector-curvature="0" />
      <path
         d="m 161.48,38.429 c 1.254,0.157 0.209,-1.045 0.52298,-1.463 l -0.366,-0.784 c 1.149,-4.336 1.88,-9.037 1.724,-13.791 -3.396,4.858 -4.389,10.866 -6.896,16.195 h 0.157 c 0.26099,0.261 -0.053,0.574 -0.26201,0.731 1.254,0.941 3.5,1.463 5.016,0.523 l 0.104,-1.411"
         id="path60"
         inkscape:connector-curvature="0" />
      <path
         d="m 142.05,36.444 c -0.366,-0.523 0.522,-0.836 0.78302,-1.254 -1.097,-0.104 -0.209,-1.619 -1.41,-1.359 -4.441,-6.373 -7.157,-13.478 -10.135,-20.478 -0.73102,-1.045 -1.463,-2.403 -2.612,-2.978 l -0.261,0.366 c 3.134,9.037 5.799,18.336 10.03,26.957 l -0.365,0.731 1.253,0.784 c 1.097,-0.732 1.933,-1.568 2.717,-2.769"
         id="path62"
         inkscape:connector-curvature="0" />
    </g>
  </g>
</svg>
